# xmcd CD database file
#
# Track frame offsets:
#	150
#	21742
#	49952
#	66802
#	89837
#	113070
#	144797
#	163527
#	180627
#	210665
#	227560
#	242985
#	282715
#
# Disc length: 4014 seconds
#
# Revision: 0
# Processed by: cddbd v1.5PL3 Copyright (c) Steve Scherf et al.
# Submitted via: CDex 1.50beta10
#
DISCID=c30fac0d
DTITLE=James Wheeler - Ready
DYEAR=1998
DGENRE=Blues
TTITLE0=Ready
TTITLE1=This Old Freight Train
TTITLE2=Gonna Make Some Changes
TTITLE3=My Key Won't Fit That Lock No More
TTITLE4=Cold Hearted Woman
TTITLE5=Blues at Midnight
TTITLE6=Good Morning Little Schoolgirl
TTITLE7=Bad Girl
TTITLE8=Extension 309
TTITLE9=I'm Just Your Fool
TTITLE10=My Baby's Comin' Home
TTITLE11=Hound Dog
TTITLE12=Looking for My Baby
EXTD=YEAR: 1998
EXTT0=
EXTT1=
EXTT2=
EXTT3=
EXTT4=
EXTT5=
EXTT6=
EXTT7=
EXTT8=
EXTT9=
EXTT10=
EXTT11=
EXTT12=
PLAYORDER=
